{
    "asset" : {
        "generator" : "Khronos glTF Blender I/O v1.5.17",
        "version" : "2.0"
    },
    "extensionsUsed" : [
        "KHR_texture_transform"
    ],
    "extensionsRequired" : [
        "KHR_texture_transform"
    ],
    "scene" : 0,
    "scenes" : [
        {
            "name" : "Scene",
            "nodes" : [
                0
            ]
        }
    ],
    "nodes" : [
        {
            "mesh" : 0,
            "name" : "AR_AK47_Barrel_000_L0",
            "rotation" : [
                0.7071064710617065,
                0,
                0,
                0.7071071863174438
            ],
            "scale" : [
                0.3937007784843445,
                0.39370056986808777,
                0.39370062947273254
            ]
        }
    ],
    "materials" : [
        {
            "doubleSided" : true,
            "name" : "AR_AK47_Barrel_000_MAT",
            "normalTexture" : {
                "extensions" : {
                    "KHR_texture_transform" : {
                        "offset" : [
                            0,
                            -1
                        ]
                    }
                },
                "index" : 0
            },
            "pbrMetallicRoughness" : {
                "baseColorTexture" : {
                    "extensions" : {
                        "KHR_texture_transform" : {
                            "offset" : [
                                0,
                                -1
                            ]
                        }
                    },
                    "index" : 1
                },
                "metallicFactor" : 0,
                "roughnessFactor" : 0.4343145787715912
            }
        },
        {
            "doubleSided" : true,
            "name" : "AR_AK47_Upper_000_MAT",
            "normalTexture" : {
                "extensions" : {
                    "KHR_texture_transform" : {
                        "offset" : [
                            0,
                            -1
                        ]
                    }
                },
                "index" : 2
            },
            "pbrMetallicRoughness" : {
                "baseColorTexture" : {
                    "extensions" : {
                        "KHR_texture_transform" : {
                            "offset" : [
                                0,
                                -1
                            ]
                        }
                    },
                    "index" : 3
                },
                "metallicFactor" : 0,
                "roughnessFactor" : 0.4343145787715912
            }
        },
        {
            "doubleSided" : true,
            "name" : "AR_AK47_Stock_000_MAT",
            "normalTexture" : {
                "extensions" : {
                    "KHR_texture_transform" : {
                        "offset" : [
                            0,
                            -1
                        ]
                    }
                },
                "index" : 4
            },
            "pbrMetallicRoughness" : {
                "baseColorTexture" : {
                    "extensions" : {
                        "KHR_texture_transform" : {
                            "offset" : [
                                0,
                                -1
                            ]
                        }
                    },
                    "index" : 5
                },
                "metallicFactor" : 0,
                "roughnessFactor" : 0.4343145787715912
            }
        },
        {
            "doubleSided" : true,
            "name" : "AR_AK47_Magazine_000_MAT",
            "normalTexture" : {
                "extensions" : {
                    "KHR_texture_transform" : {
                        "offset" : [
                            0,
                            -1
                        ]
                    }
                },
                "index" : 6
            },
            "pbrMetallicRoughness" : {
                "baseColorTexture" : {
                    "extensions" : {
                        "KHR_texture_transform" : {
                            "offset" : [
                                0,
                                -1
                            ]
                        }
                    },
                    "index" : 7
                },
                "metallicFactor" : 0,
                "roughnessFactor" : 0.4343145787715912
            }
        }
    ],
    "meshes" : [
        {
            "name" : "AR_AK47_Barrel_000_L0",
            "primitives" : [
                {
                    "attributes" : {
                        "POSITION" : 0,
                        "NORMAL" : 1,
                        "TEXCOORD_0" : 2
                    },
                    "indices" : 3,
                    "material" : 0
                },
                {
                    "attributes" : {
                        "POSITION" : 4,
                        "NORMAL" : 5,
                        "TEXCOORD_0" : 6
                    },
                    "indices" : 7,
                    "material" : 1
                },
                {
                    "attributes" : {
                        "POSITION" : 8,
                        "NORMAL" : 9,
                        "TEXCOORD_0" : 10
                    },
                    "indices" : 11,
                    "material" : 2
                },
                {
                    "attributes" : {
                        "POSITION" : 12,
                        "NORMAL" : 13,
                        "TEXCOORD_0" : 14
                    },
                    "indices" : 15,
                    "material" : 3
                }
            ]
        }
    ],
    "textures" : [
        {
            "sampler" : 0,
            "source" : 0
        },
        {
            "sampler" : 0,
            "source" : 1
        },
        {
            "sampler" : 0,
            "source" : 2
        },
        {
            "sampler" : 0,
            "source" : 3
        },
        {
            "sampler" : 0,
            "source" : 4
        },
        {
            "sampler" : 0,
            "source" : 5
        },
        {
            "sampler" : 0,
            "source" : 6
        },
        {
            "sampler" : 0,
            "source" : 7
        }
    ],
    "images" : [
        {
            "bufferView" : 4,
            "mimeType" : "image/jpeg",
            "name" : "AR_AK47_Barrel_000_D_normal"
        },
        {
            "bufferView" : 5,
            "mimeType" : "image/jpeg",
            "name" : "AR_AK47_Barrel_000_D"
        },
        {
            "bufferView" : 10,
            "mimeType" : "image/jpeg",
            "name" : "AR_AK47_Upper_000_D_normal"
        },
        {
            "bufferView" : 11,
            "mimeType" : "image/jpeg",
            "name" : "AR_AK47_Upper_000_D"
        },
        {
            "bufferView" : 16,
            "mimeType" : "image/jpeg",
            "name" : "AR_AK47_Stock_000_D_normal"
        },
        {
            "bufferView" : 17,
            "mimeType" : "image/jpeg",
            "name" : "AR_AK47_Stock_000_D"
        },
        {
            "bufferView" : 22,
            "mimeType" : "image/jpeg",
            "name" : "AR_AK47_Magazine_000_D_normal"
        },
        {
            "bufferView" : 23,
            "mimeType" : "image/jpeg",
            "name" : "AR_AK47_Magazine_000_D"
        }
    ],
    "accessors" : [
        {
            "bufferView" : 0,
            "componentType" : 5126,
            "count" : 636,
            "max" : [
                132.27000427246094,
                3.813528537750244,
                -4.1824493408203125
            ],
            "min" : [
                41.68348693847656,
                -3.7252004146575928,
                -22.801021575927734
            ],
            "type" : "VEC3"
        },
        {
            "bufferView" : 1,
            "componentType" : 5126,
            "count" : 636,
            "type" : "VEC3"
        },
        {
            "bufferView" : 2,
            "componentType" : 5126,
            "count" : 636,
            "type" : "VEC2"
        },
        {
            "bufferView" : 3,
            "componentType" : 5123,
            "count" : 1935,
            "type" : "SCALAR"
        },
        {
            "bufferView" : 6,
            "componentType" : 5126,
            "count" : 5385,
            "max" : [
                80.91720581054688,
                10.920673370361328,
                23.47951316833496
            ],
            "min" : [
                -25.239423751831055,
                -6.750238418579102,
                -22.412057876586914
            ],
            "type" : "VEC3"
        },
        {
            "bufferView" : 7,
            "componentType" : 5126,
            "count" : 5385,
            "type" : "VEC3"
        },
        {
            "bufferView" : 8,
            "componentType" : 5126,
            "count" : 5385,
            "type" : "VEC2"
        },
        {
            "bufferView" : 9,
            "componentType" : 5123,
            "count" : 17031,
            "type" : "SCALAR"
        },
        {
            "bufferView" : 12,
            "componentType" : 5126,
            "count" : 316,
            "max" : [
                -21.572525024414062,
                4.353947162628174,
                14.291223526000977
            ],
            "min" : [
                -81.3222427368164,
                -4.356330394744873,
                -15.546649932861328
            ],
            "type" : "VEC3"
        },
        {
            "bufferView" : 13,
            "componentType" : 5126,
            "count" : 316,
            "type" : "VEC3"
        },
        {
            "bufferView" : 14,
            "componentType" : 5126,
            "count" : 316,
            "type" : "VEC2"
        },
        {
            "bufferView" : 15,
            "componentType" : 5123,
            "count" : 1146,
            "type" : "SCALAR"
        },
        {
            "bufferView" : 18,
            "componentType" : 5126,
            "count" : 589,
            "max" : [
                48.2987174987793,
                2.6263537406921387,
                42.4380989074707
            ],
            "min" : [
                14.85886001586914,
                -2.628737211227417,
                -6.690328121185303
            ],
            "type" : "VEC3"
        },
        {
            "bufferView" : 19,
            "componentType" : 5126,
            "count" : 589,
            "type" : "VEC3"
        },
        {
            "bufferView" : 20,
            "componentType" : 5126,
            "count" : 589,
            "type" : "VEC2"
        },
        {
            "bufferView" : 21,
            "componentType" : 5123,
            "count" : 2046,
            "type" : "SCALAR"
        }
    ],
    "bufferViews" : [
        {
            "buffer" : 0,
            "byteLength" : 7632,
            "byteOffset" : 0
        },
        {
            "buffer" : 0,
            "byteLength" : 7632,
            "byteOffset" : 7632
        },
        {
            "buffer" : 0,
            "byteLength" : 5088,
            "byteOffset" : 15264
        },
        {
            "buffer" : 0,
            "byteLength" : 3870,
            "byteOffset" : 20352
        },
        {
            "buffer" : 0,
            "byteLength" : 15151,
            "byteOffset" : 24224
        },
        {
            "buffer" : 0,
            "byteLength" : 13367,
            "byteOffset" : 39376
        },
        {
            "buffer" : 0,
            "byteLength" : 64620,
            "byteOffset" : 52744
        },
        {
            "buffer" : 0,
            "byteLength" : 64620,
            "byteOffset" : 117364
        },
        {
            "buffer" : 0,
            "byteLength" : 43080,
            "byteOffset" : 181984
        },
        {
            "buffer" : 0,
            "byteLength" : 34062,
            "byteOffset" : 225064
        },
        {
            "buffer" : 0,
            "byteLength" : 106480,
            "byteOffset" : 259128
        },
        {
            "buffer" : 0,
            "byteLength" : 88711,
            "byteOffset" : 365608
        },
        {
            "buffer" : 0,
            "byteLength" : 3792,
            "byteOffset" : 454320
        },
        {
            "buffer" : 0,
            "byteLength" : 3792,
            "byteOffset" : 458112
        },
        {
            "buffer" : 0,
            "byteLength" : 2528,
            "byteOffset" : 461904
        },
        {
            "buffer" : 0,
            "byteLength" : 2292,
            "byteOffset" : 464432
        },
        {
            "buffer" : 0,
            "byteLength" : 37371,
            "byteOffset" : 466724
        },
        {
            "buffer" : 0,
            "byteLength" : 31037,
            "byteOffset" : 504096
        },
        {
            "buffer" : 0,
            "byteLength" : 7068,
            "byteOffset" : 535136
        },
        {
            "buffer" : 0,
            "byteLength" : 7068,
            "byteOffset" : 542204
        },
        {
            "buffer" : 0,
            "byteLength" : 4712,
            "byteOffset" : 549272
        },
        {
            "buffer" : 0,
            "byteLength" : 4092,
            "byteOffset" : 553984
        },
        {
            "buffer" : 0,
            "byteLength" : 41641,
            "byteOffset" : 558076
        },
        {
            "buffer" : 0,
            "byteLength" : 35622,
            "byteOffset" : 599720
        }
    ],
    "samplers" : [
        {
            "magFilter" : 9729,
            "minFilter" : 9987
        }
    ],
    "buffers" : [
        {
            "byteLength" : 635344,
            "uri" : "data:application/octet-stream;base64,"
        }
    ]
}
