{
    "asset" : {
        "generator" : "Khronos glTF Blender I/O v1.5.17",
        "version" : "2.0"
    },
    "extensionsUsed" : [
        "KHR_texture_transform"
    ],
    "extensionsRequired" : [
        "KHR_texture_transform"
    ],
    "scene" : 0,
    "scenes" : [
        {
            "name" : "Scene",
            "nodes" : [
                0
            ]
        }
    ],
    "nodes" : [
        {
            "mesh" : 0,
            "name" : "Pistol_Magnum_2",
            "rotation" : [
                0.7071064710617065,
                0,
                0,
                0.7071071863174438
            ],
            "scale" : [
                0.39370080828666687,
                0.39370059967041016,
                0.39370062947273254
            ]
        }
    ],
    "materials" : [
        {
            "doubleSided" : true,
            "name" : "Pistol_magnum_000_Mat",
            "normalTexture" : {
                "extensions" : {
                    "KHR_texture_transform" : {
                        "offset" : [
                            0,
                            -1
                        ]
                    }
                },
                "index" : 0
            },
            "pbrMetallicRoughness" : {
                "baseColorTexture" : {
                    "extensions" : {
                        "KHR_texture_transform" : {
                            "offset" : [
                                0,
                                -1
                            ]
                        }
                    },
                    "index" : 1
                },
                "metallicFactor" : 0,
                "roughnessFactor" : 0.4343145787715912
            }
        }
    ],
    "meshes" : [
        {
            "name" : "Pistol_Magnum_2",
            "primitives" : [
                {
                    "attributes" : {
                        "POSITION" : 0,
                        "NORMAL" : 1,
                        "TEXCOORD_0" : 2
                    },
                    "indices" : 3,
                    "material" : 0
                }
            ]
        }
    ],
    "textures" : [
        {
            "sampler" : 0,
            "source" : 0
        },
        {
            "sampler" : 0,
            "source" : 1
        }
    ],
    "images" : [
        {
            "bufferView" : 4,
            "mimeType" : "image/jpeg",
            "name" : "Pistol_Magnum_000_D_normal"
        },
        {
            "bufferView" : 5,
            "mimeType" : "image/jpeg",
            "name" : "Pistol_Magnum_000_D"
        }
    ],
    "accessors" : [
        {
            "bufferView" : 0,
            "componentType" : 5126,
            "count" : 7432,
            "max" : [
                79.7372055053711,
                6.846248626708984,
                20.636066436767578
            ],
            "min" : [
                -31.910717010498047,
                -6.846248626708984,
                -25.571775436401367
            ],
            "type" : "VEC3"
        },
        {
            "bufferView" : 1,
            "componentType" : 5126,
            "count" : 7432,
            "type" : "VEC3"
        },
        {
            "bufferView" : 2,
            "componentType" : 5126,
            "count" : 7432,
            "type" : "VEC2"
        },
        {
            "bufferView" : 3,
            "componentType" : 5123,
            "count" : 22389,
            "type" : "SCALAR"
        }
    ],
    "bufferViews" : [
        {
            "buffer" : 0,
            "byteLength" : 89184,
            "byteOffset" : 0
        },
        {
            "buffer" : 0,
            "byteLength" : 89184,
            "byteOffset" : 89184
        },
        {
            "buffer" : 0,
            "byteLength" : 59456,
            "byteOffset" : 178368
        },
        {
            "buffer" : 0,
            "byteLength" : 44778,
            "byteOffset" : 237824
        },
        {
            "buffer" : 0,
            "byteLength" : 156707,
            "byteOffset" : 282604
        },
        {
            "buffer" : 0,
            "byteLength" : 115746,
            "byteOffset" : 439312
        }
    ],
    "samplers" : [
        {
            "magFilter" : 9729,
            "minFilter" : 9987
        }
    ],
    "buffers" : [
        {
            "byteLength" : 555060,
            "uri" : "data:application/octet-stream;base64,"
        }
    ]
}
