{
    "asset" : {
        "generator" : "Khronos glTF Blender I/O v1.5.17",
        "version" : "2.0"
    },
    "extensionsUsed" : [
        "KHR_texture_transform"
    ],
    "extensionsRequired" : [
        "KHR_texture_transform"
    ],
    "scene" : 0,
    "scenes" : [
        {
            "name" : "Scene",
            "nodes" : [
                0
            ]
        }
    ],
    "nodes" : [
        {
            "mesh" : 0,
            "name" : "SMG_MP5_Barrel_001_L0",
            "rotation" : [
                0.7071064710617065,
                0,
                0,
                0.7071071863174438
            ],
            "scale" : [
                0.3937007784843445,
                0.39370059967041016,
                0.39370065927505493
            ]
        }
    ],
    "materials" : [
        {
            "doubleSided" : true,
            "name" : "SMG_MP5_Barrel_001_Mat.001",
            "normalTexture" : {
                "extensions" : {
                    "KHR_texture_transform" : {
                        "offset" : [
                            0,
                            -1
                        ]
                    }
                },
                "index" : 0
            },
            "pbrMetallicRoughness" : {
                "baseColorTexture" : {
                    "extensions" : {
                        "KHR_texture_transform" : {
                            "offset" : [
                                0,
                                -1
                            ]
                        }
                    },
                    "index" : 1
                },
                "metallicFactor" : 0,
                "roughnessFactor" : 0.4343145787715912
            }
        },
        {
            "doubleSided" : true,
            "name" : "SMG_MP5_Lower_001_Mat.001",
            "normalTexture" : {
                "extensions" : {
                    "KHR_texture_transform" : {
                        "offset" : [
                            0,
                            -1
                        ]
                    }
                },
                "index" : 2
            },
            "pbrMetallicRoughness" : {
                "baseColorTexture" : {
                    "extensions" : {
                        "KHR_texture_transform" : {
                            "offset" : [
                                0,
                                -1
                            ]
                        }
                    },
                    "index" : 3
                },
                "metallicFactor" : 0,
                "roughnessFactor" : 0.4343145787715912
            }
        },
        {
            "doubleSided" : true,
            "name" : "SMG_MP5_Magazine_001_Mat.001",
            "normalTexture" : {
                "extensions" : {
                    "KHR_texture_transform" : {
                        "offset" : [
                            0,
                            -1
                        ]
                    }
                },
                "index" : 4
            },
            "pbrMetallicRoughness" : {
                "baseColorTexture" : {
                    "extensions" : {
                        "KHR_texture_transform" : {
                            "offset" : [
                                0,
                                -1
                            ]
                        }
                    },
                    "index" : 5
                },
                "metallicFactor" : 0,
                "roughnessFactor" : 0.4343145787715912
            }
        },
        {
            "doubleSided" : true,
            "name" : "SMG_MP5_Upper_001_Mat.001",
            "normalTexture" : {
                "extensions" : {
                    "KHR_texture_transform" : {
                        "offset" : [
                            0,
                            -1
                        ]
                    }
                },
                "index" : 6
            },
            "pbrMetallicRoughness" : {
                "baseColorTexture" : {
                    "extensions" : {
                        "KHR_texture_transform" : {
                            "offset" : [
                                0,
                                -1
                            ]
                        }
                    },
                    "index" : 7
                },
                "metallicFactor" : 0,
                "roughnessFactor" : 0.4343145787715912
            }
        }
    ],
    "meshes" : [
        {
            "name" : "SMG_MP5_Barrel_001_L0.001",
            "primitives" : [
                {
                    "attributes" : {
                        "POSITION" : 0,
                        "NORMAL" : 1,
                        "TEXCOORD_0" : 2
                    },
                    "indices" : 3,
                    "material" : 0
                },
                {
                    "attributes" : {
                        "POSITION" : 4,
                        "NORMAL" : 5,
                        "TEXCOORD_0" : 6
                    },
                    "indices" : 7,
                    "material" : 1
                },
                {
                    "attributes" : {
                        "POSITION" : 8,
                        "NORMAL" : 9,
                        "TEXCOORD_0" : 10
                    },
                    "indices" : 11,
                    "material" : 2
                },
                {
                    "attributes" : {
                        "POSITION" : 12,
                        "NORMAL" : 13,
                        "TEXCOORD_0" : 14
                    },
                    "indices" : 15,
                    "material" : 3
                }
            ]
        }
    ],
    "textures" : [
        {
            "sampler" : 0,
            "source" : 0
        },
        {
            "sampler" : 0,
            "source" : 1
        },
        {
            "sampler" : 0,
            "source" : 2
        },
        {
            "sampler" : 0,
            "source" : 3
        },
        {
            "sampler" : 0,
            "source" : 4
        },
        {
            "sampler" : 0,
            "source" : 5
        },
        {
            "sampler" : 0,
            "source" : 6
        },
        {
            "sampler" : 0,
            "source" : 7
        }
    ],
    "images" : [
        {
            "bufferView" : 4,
            "mimeType" : "image/jpeg",
            "name" : "SMG_MP5_Barrel_001_D_normal"
        },
        {
            "bufferView" : 5,
            "mimeType" : "image/jpeg",
            "name" : "SMG_MP5_Barrel_001_D"
        },
        {
            "bufferView" : 10,
            "mimeType" : "image/jpeg",
            "name" : "SMG_MP5_Lower_001_D_normal"
        },
        {
            "bufferView" : 11,
            "mimeType" : "image/jpeg",
            "name" : "SMG_MP5_Lower_001_D"
        },
        {
            "bufferView" : 16,
            "mimeType" : "image/jpeg",
            "name" : "SMG_MP5_Magazine_001_D_normal"
        },
        {
            "bufferView" : 17,
            "mimeType" : "image/jpeg",
            "name" : "SMG_MP5_Magazine_001_D"
        },
        {
            "bufferView" : 22,
            "mimeType" : "image/jpeg",
            "name" : "SMG_MP5_Upper_001_D_normal"
        },
        {
            "bufferView" : 23,
            "mimeType" : "image/jpeg",
            "name" : "SMG_MP5_Upper_001_D"
        }
    ],
    "accessors" : [
        {
            "bufferView" : 0,
            "componentType" : 5126,
            "count" : 254,
            "max" : [
                90.68870544433594,
                3.1677911281585693,
                -14.954736709594727
            ],
            "min" : [
                29.0631046295166,
                -3.173527240753174,
                -21.624576568603516
            ],
            "type" : "VEC3"
        },
        {
            "bufferView" : 1,
            "componentType" : 5126,
            "count" : 254,
            "type" : "VEC3"
        },
        {
            "bufferView" : 2,
            "componentType" : 5126,
            "count" : 254,
            "type" : "VEC2"
        },
        {
            "bufferView" : 3,
            "componentType" : 5123,
            "count" : 735,
            "type" : "SCALAR"
        },
        {
            "bufferView" : 6,
            "componentType" : 5126,
            "count" : 2528,
            "max" : [
                16.219070434570312,
                5.8222222328186035,
                21.15230941772461
            ],
            "min" : [
                -96.23202514648438,
                -8.091667175292969,
                -27.282180786132812
            ],
            "type" : "VEC3"
        },
        {
            "bufferView" : 7,
            "componentType" : 5126,
            "count" : 2528,
            "type" : "VEC3"
        },
        {
            "bufferView" : 8,
            "componentType" : 5126,
            "count" : 2528,
            "type" : "VEC2"
        },
        {
            "bufferView" : 9,
            "componentType" : 5123,
            "count" : 7851,
            "type" : "SCALAR"
        },
        {
            "bufferView" : 12,
            "componentType" : 5126,
            "count" : 433,
            "max" : [
                40.78147506713867,
                2.2886781692504883,
                32.655174255371094
            ],
            "min" : [
                16.52924156188965,
                -2.3548951148986816,
                -14.214393615722656
            ],
            "type" : "VEC3"
        },
        {
            "bufferView" : 13,
            "componentType" : 5126,
            "count" : 433,
            "type" : "VEC3"
        },
        {
            "bufferView" : 14,
            "componentType" : 5126,
            "count" : 433,
            "type" : "VEC2"
        },
        {
            "bufferView" : 15,
            "componentType" : 5123,
            "count" : 1086,
            "type" : "SCALAR"
        },
        {
            "bufferView" : 18,
            "componentType" : 5126,
            "count" : 5180,
            "max" : [
                74.17996978759766,
                7.143939018249512,
                0.7700523138046265
            ],
            "min" : [
                -22.330642700195312,
                -7.232000827789307,
                -33.68766784667969
            ],
            "type" : "VEC3"
        },
        {
            "bufferView" : 19,
            "componentType" : 5126,
            "count" : 5180,
            "type" : "VEC3"
        },
        {
            "bufferView" : 20,
            "componentType" : 5126,
            "count" : 5180,
            "type" : "VEC2"
        },
        {
            "bufferView" : 21,
            "componentType" : 5123,
            "count" : 13359,
            "type" : "SCALAR"
        }
    ],
    "bufferViews" : [
        {
            "buffer" : 0,
            "byteLength" : 3048,
            "byteOffset" : 0
        },
        {
            "buffer" : 0,
            "byteLength" : 3048,
            "byteOffset" : 3048
        },
        {
            "buffer" : 0,
            "byteLength" : 2032,
            "byteOffset" : 6096
        },
        {
            "buffer" : 0,
            "byteLength" : 1470,
            "byteOffset" : 8128
        },
        {
            "buffer" : 0,
            "byteLength" : 17742,
            "byteOffset" : 9600
        },
        {
            "buffer" : 0,
            "byteLength" : 14465,
            "byteOffset" : 27344
        },
        {
            "buffer" : 0,
            "byteLength" : 30336,
            "byteOffset" : 41812
        },
        {
            "buffer" : 0,
            "byteLength" : 30336,
            "byteOffset" : 72148
        },
        {
            "buffer" : 0,
            "byteLength" : 20224,
            "byteOffset" : 102484
        },
        {
            "buffer" : 0,
            "byteLength" : 15702,
            "byteOffset" : 122708
        },
        {
            "buffer" : 0,
            "byteLength" : 141050,
            "byteOffset" : 138412
        },
        {
            "buffer" : 0,
            "byteLength" : 102559,
            "byteOffset" : 279464
        },
        {
            "buffer" : 0,
            "byteLength" : 5196,
            "byteOffset" : 382024
        },
        {
            "buffer" : 0,
            "byteLength" : 5196,
            "byteOffset" : 387220
        },
        {
            "buffer" : 0,
            "byteLength" : 3464,
            "byteOffset" : 392416
        },
        {
            "buffer" : 0,
            "byteLength" : 2172,
            "byteOffset" : 395880
        },
        {
            "buffer" : 0,
            "byteLength" : 15350,
            "byteOffset" : 398052
        },
        {
            "buffer" : 0,
            "byteLength" : 11400,
            "byteOffset" : 413404
        },
        {
            "buffer" : 0,
            "byteLength" : 62160,
            "byteOffset" : 424804
        },
        {
            "buffer" : 0,
            "byteLength" : 62160,
            "byteOffset" : 486964
        },
        {
            "buffer" : 0,
            "byteLength" : 41440,
            "byteOffset" : 549124
        },
        {
            "buffer" : 0,
            "byteLength" : 26718,
            "byteOffset" : 590564
        },
        {
            "buffer" : 0,
            "byteLength" : 110151,
            "byteOffset" : 617284
        },
        {
            "buffer" : 0,
            "byteLength" : 87653,
            "byteOffset" : 727436
        }
    ],
    "samplers" : [
        {
            "magFilter" : 9729,
            "minFilter" : 9987
        }
    ],
    "buffers" : [
        {
            "byteLength" : 815092,
            "uri" : "data:application/octet-stream;base64,"
        }
    ]
}
